<mxfile host="app.diagrams.net" modified="2022-03-16T20:39:50.391Z" agent="5.0 (Windows NT 10.0; Win64; x64) AppleWebKit/537.36 (KHTML, like Gecko) Chrome/99.0.4844.51 Safari/537.36 Edg/99.0.1150.39" etag="i8MUn5eNp-0lKmup48d3" version="17.1.3" type="github">
  <diagram id="HiYSGCFntVZxi6C58XF6" name="Page-1">
    <mxGraphModel dx="2249" dy="762" grid="1" gridSize="10" guides="1" tooltips="1" connect="1" arrows="1" fold="1" page="1" pageScale="1" pageWidth="827" pageHeight="1169" math="0" shadow="0">
      <root>
        <mxCell id="0" />
        <mxCell id="1" parent="0" />
        <mxCell id="l4zi934gFm5tuDN2r6HE-6" value="" style="edgeStyle=orthogonalEdgeStyle;rounded=0;orthogonalLoop=1;jettySize=auto;html=1;fontFamily=Helvetica;fontSize=12;fontColor=#333333;" edge="1" parent="1" source="l4zi934gFm5tuDN2r6HE-2" target="l4zi934gFm5tuDN2r6HE-5">
          <mxGeometry relative="1" as="geometry" />
        </mxCell>
        <mxCell id="l4zi934gFm5tuDN2r6HE-2" value="&lt;font style=&quot;font-size: 14px&quot;&gt;&lt;b&gt;Core&lt;/b&gt;&lt;/font&gt;" style="shape=parallelogram;perimeter=parallelogramPerimeter;whiteSpace=wrap;html=1;fixedSize=1;fillColor=#e1d5e7;strokeColor=#9673a6;" vertex="1" parent="1">
          <mxGeometry x="50" y="100" width="190" height="40" as="geometry" />
        </mxCell>
        <mxCell id="l4zi934gFm5tuDN2r6HE-8" value="" style="edgeStyle=orthogonalEdgeStyle;rounded=0;orthogonalLoop=1;jettySize=auto;html=1;fontFamily=Helvetica;fontSize=12;fontColor=#333333;" edge="1" parent="1" source="l4zi934gFm5tuDN2r6HE-3" target="l4zi934gFm5tuDN2r6HE-7">
          <mxGeometry relative="1" as="geometry" />
        </mxCell>
        <mxCell id="l4zi934gFm5tuDN2r6HE-3" value="&lt;font style=&quot;font-size: 14px&quot;&gt;&lt;b&gt;Movement&lt;/b&gt;&lt;/font&gt;" style="shape=parallelogram;perimeter=parallelogramPerimeter;whiteSpace=wrap;html=1;fixedSize=1;fillColor=#e1d5e7;strokeColor=#9673a6;" vertex="1" parent="1">
          <mxGeometry x="280" y="100" width="190" height="40" as="geometry" />
        </mxCell>
        <mxCell id="l4zi934gFm5tuDN2r6HE-10" value="" style="edgeStyle=orthogonalEdgeStyle;rounded=0;orthogonalLoop=1;jettySize=auto;html=1;fontFamily=Helvetica;fontSize=12;fontColor=#333333;" edge="1" parent="1" source="l4zi934gFm5tuDN2r6HE-4" target="l4zi934gFm5tuDN2r6HE-9">
          <mxGeometry relative="1" as="geometry" />
        </mxCell>
        <mxCell id="l4zi934gFm5tuDN2r6HE-4" value="&lt;font style=&quot;font-size: 14px&quot;&gt;&lt;b&gt;Controller&lt;/b&gt;&lt;/font&gt;" style="shape=parallelogram;perimeter=parallelogramPerimeter;whiteSpace=wrap;html=1;fixedSize=1;fillColor=#e1d5e7;strokeColor=#9673a6;" vertex="1" parent="1">
          <mxGeometry x="500" y="100" width="190" height="40" as="geometry" />
        </mxCell>
        <mxCell id="l4zi934gFm5tuDN2r6HE-5" value="FollowCamera" style="rounded=0;whiteSpace=wrap;html=1;fontFamily=Helvetica;fontSize=12;strokeColor=#666666;fillColor=#f5f5f5;fontColor=#333333;" vertex="1" parent="1">
          <mxGeometry x="-60" y="200" width="120" height="60" as="geometry" />
        </mxCell>
        <mxCell id="l4zi934gFm5tuDN2r6HE-7" value="Mover" style="rounded=0;whiteSpace=wrap;html=1;fontFamily=Helvetica;fontSize=12;strokeColor=#666666;fillColor=#f5f5f5;fontColor=#333333;" vertex="1" parent="1">
          <mxGeometry x="220" y="200" width="120" height="60" as="geometry" />
        </mxCell>
        <mxCell id="l4zi934gFm5tuDN2r6HE-9" value="PlayerController" style="rounded=0;whiteSpace=wrap;html=1;fontFamily=Helvetica;fontSize=12;strokeColor=#666666;fillColor=#f5f5f5;fontColor=#333333;" vertex="1" parent="1">
          <mxGeometry x="535" y="190" width="120" height="60" as="geometry" />
        </mxCell>
        <mxCell id="l4zi934gFm5tuDN2r6HE-12" value="&lt;b style=&quot;font-size: 12px&quot;&gt;&lt;font style=&quot;font-size: 18px&quot;&gt;TRISOLARIS&lt;/font&gt;&lt;/b&gt;" style="shape=process;whiteSpace=wrap;html=1;backgroundOutline=1;rounded=0;fontFamily=Helvetica;fontSize=18;strokeColor=#b85450;fillColor=#f8cecc;" vertex="1" parent="1">
          <mxGeometry x="260" y="10" width="266" height="60" as="geometry" />
        </mxCell>
      </root>
    </mxGraphModel>
  </diagram>
</mxfile>
